<svg width="54" height="54" viewBox="0 0 54 54" fill="none" xmlns="http://www.w3.org/2000/svg">
<g filter="url(#filter0_d_11_212)">
<path d="M25.2 49.5C38.6206 49.5 49.5 38.6206 49.5 25.2C49.5 11.7795 38.6206 0.900024 25.2 0.900024C11.7795 0.900024 0.900024 11.7795 0.900024 25.2C0.900024 38.6206 11.7795 49.5 25.2 49.5Z" fill="#F93535"/>
<path d="M25.2 36.9C31.6617 36.9 36.9 31.6617 36.9 25.2C36.9 18.7383 31.6617 13.5 25.2 13.5C18.7383 13.5 13.5 18.7383 13.5 25.2V36.9H25.2Z" fill="white"/>
<path d="M30.6 23.4H19.8V25.2H30.6V23.4Z" fill="#F93535"/>
<path d="M24.3 27.9H19.8V29.7H24.3V27.9Z" fill="#F93535"/>
</g>
<defs>
<filter id="filter0_d_11_212" x="-0.0999756" y="-0.0999756" width="54.6" height="54.6" filterUnits="userSpaceOnUse" color-interpolation-filters="sRGB">
<feFlood flood-opacity="0" result="BackgroundImageFix"/>
<feColorMatrix in="SourceAlpha" type="matrix" values="0 0 0 0 0 0 0 0 0 0 0 0 0 0 0 0 0 0 127 0" result="hardAlpha"/>
<feOffset dx="2" dy="2"/>
<feGaussianBlur stdDeviation="1.5"/>
<feComposite in2="hardAlpha" operator="out"/>
<feColorMatrix type="matrix" values="0 0 0 0 0 0 0 0 0 0 0 0 0 0 0 0 0 0 0.25 0"/>
<feBlend mode="normal" in2="BackgroundImageFix" result="effect1_dropShadow_11_212"/>
<feBlend mode="normal" in="SourceGraphic" in2="effect1_dropShadow_11_212" result="shape"/>
</filter>
</defs>
</svg>
